<?xml version="1.0" encoding="utf-8"?>
<svg xmlns="http://www.w3.org/2000/svg" style="margin: auto; display: block; shape-rendering: auto; background: none;" width="200" height="50" preserveAspectRatio="xMidYMid">
<style type="text/css">
  text {
    text-anchor: middle; font-size: 28px; opacity: 0;
  }
</style>
<g style="transform-origin: 100px 25px; transform: scale(0.7);">
<g transform="translate(100,25)">
  <g transform="translate(0,0)"><g class="path" style="opacity: 1; transform-origin: -115.765px -2.473px; animation: 1s linear -0.605s infinite normal forwards running blink-a94481a5-e537-49d6-a46b-1fcb04f7605c;"><path d="M26.23-8.59L26.23-8.59L26.23-8.59Q26.23-6.78 25.77-5.39L25.77-5.39L25.77-5.39Q25.31-4.00 24.48-2.99L24.48-2.99L24.48-2.99Q23.65-1.97 22.52-1.29L22.52-1.29L22.52-1.29Q21.39-0.61 20.05-0.20L20.05-0.20L20.05-0.20Q18.71 0.21 17.22 0.39L17.22 0.39L17.22 0.39Q15.72 0.57 14.18 0.57L14.18 0.57L14.18 0.57Q12.15 0.57 10.43 0.26L10.43 0.26L10.43 0.26Q8.71-0.04 7.20-0.69L7.20-0.69L7.20-0.69Q5.68-1.35 4.29-2.38L4.29-2.38L4.29-2.38Q2.89-3.42 1.50-4.90L1.50-4.90L5.49-8.95L5.49-8.95Q6.04-7.60 6.99-6.46L6.99-6.46L6.99-6.46Q7.95-5.31 9.09-4.49L9.09-4.49L9.09-4.49Q10.23-3.67 11.46-3.20L11.46-3.20L11.46-3.20Q12.70-2.73 13.79-2.73L13.79-2.73L13.79-2.73Q15.08-2.73 16.21-2.92L16.21-2.92L16.21-2.92Q17.34-3.11 18.18-3.54L18.18-3.54L18.18-3.54Q19.02-3.96 19.50-4.68L19.50-4.68L19.50-4.68Q19.98-5.39 19.98-6.46L19.98-6.46L19.98-6.46Q19.98-7.29 19.61-7.87L19.61-7.87L19.61-7.87Q19.24-8.46 18.64-8.88L18.64-8.88L18.64-8.88Q18.05-9.30 17.29-9.59L17.29-9.59L17.29-9.59Q16.52-9.88 15.73-10.09L15.73-10.09L15.73-10.09Q14.94-10.29 14.18-10.46L14.18-10.46L14.18-10.46Q13.42-10.63 12.83-10.80L12.83-10.80L12.83-10.80Q11.68-11.13 10.43-11.51L10.43-11.51L10.43-11.51Q9.18-11.89 7.97-12.38L7.97-12.38L7.97-12.38Q6.76-12.87 5.67-13.51L5.67-13.51L5.67-13.51Q4.59-14.14 3.77-15.01L3.77-15.01L3.77-15.01Q2.95-15.88 2.46-17.02L2.46-17.02L2.46-17.02Q1.97-18.16 1.97-19.65L1.97-19.65L1.97-19.65Q1.97-21.43 2.41-22.80L2.41-22.80L2.41-22.80Q2.85-24.18 3.65-25.20L3.65-25.20L3.65-25.20Q4.45-26.21 5.55-26.90L5.55-26.90L5.55-26.90Q6.64-27.60 7.95-28.02L7.95-28.02L7.95-28.02Q9.26-28.44 10.73-28.62L10.73-28.62L10.73-28.62Q12.21-28.81 13.75-28.81L13.75-28.81L13.75-28.81Q15.86-28.81 17.59-28.42L17.59-28.42L17.59-28.42Q19.32-28.03 20.78-27.30L20.78-27.30L20.78-27.30Q22.25-26.58 23.47-25.58L23.47-25.58L23.47-25.58Q24.69-24.57 25.76-23.34L25.76-23.34L21.78-19.30L21.78-19.30Q21.31-20.70 20.48-21.84L20.48-21.84L20.48-21.84Q19.65-22.97 18.63-23.78L18.63-23.78L18.63-23.78Q17.62-24.59 16.50-25.03L16.50-25.03L16.50-25.03Q15.39-25.47 14.36-25.47L14.36-25.47L14.36-25.47Q13.01-25.47 11.88-25.28L11.88-25.28L11.88-25.28Q10.74-25.10 9.93-24.68L9.93-24.68L9.93-24.68Q9.12-24.26 8.67-23.54L8.67-23.54L8.67-23.54Q8.22-22.83 8.22-21.78L8.22-21.78L8.22-21.78Q8.22-20.94 8.55-20.35L8.55-20.35L8.55-20.35Q8.89-19.77 9.44-19.36L9.44-19.36L9.44-19.36Q10-18.95 10.70-18.68L10.70-18.68L10.70-18.68Q11.41-18.42 12.16-18.22L12.16-18.22L12.16-18.22Q12.91-18.03 13.64-17.88L13.64-17.88L13.64-17.88Q14.38-17.73 14.98-17.56L14.98-17.56L14.98-17.56Q16.15-17.23 17.44-16.86L17.44-16.86L17.44-16.86Q18.73-16.48 19.98-15.99L19.98-15.99L19.98-15.99Q21.23-15.49 22.36-14.84L22.36-14.84L22.36-14.84Q23.50-14.20 24.36-13.31L24.36-13.31L24.36-13.31Q25.21-12.42 25.72-11.26L25.72-11.26L25.72-11.26Q26.23-10.10 26.23-8.59" fill="#000000" stroke="none" stroke-width="none" transform="translate(-129.6300048828125,11.647003479003907)" style="fill: rgb(0, 0, 0);"></path></g><g class="path" style="opacity: 1; transform-origin: -87.705px -1.383px; animation: 1s linear -0.55s infinite normal forwards running blink-a94481a5-e537-49d6-a46b-1fcb04f7605c;"><path d="M53.46-12.93L53.46-12.93L53.46-12.93Q53.46-10.64 52.90-8.16L52.90-8.16L52.90-8.16Q52.34-5.68 51.35-3.30L51.35-3.30L51.35-3.30Q50.35-0.92 48.96 1.18L48.96 1.18L48.96 1.18Q47.58 3.28 45.92 4.80L45.92 4.80L43.44 3.46L43.44 3.46Q43.96 2.48 44.43 1.27L44.43 1.27L44.43 1.27Q44.90 0.06 45.28-1.30L45.28-1.30L45.28-1.30Q45.66-2.66 45.97-4.10L45.97-4.10L45.97-4.10Q46.27-5.55 46.47-6.96L46.47-6.96L46.47-6.96Q46.68-8.38 46.79-9.72L46.79-9.72L46.79-9.72Q46.89-11.05 46.89-12.21L46.89-12.21L46.89-12.21Q46.89-12.97 46.84-13.84L46.84-13.84L46.84-13.84Q46.78-14.71 46.59-15.58L46.59-15.58L46.59-15.58Q46.41-16.45 46.09-17.25L46.09-17.25L46.09-17.25Q45.78-18.05 45.26-18.65L45.26-18.65L45.26-18.65Q44.75-19.26 44.01-19.63L44.01-19.63L44.01-19.63Q43.28-20 42.29-20L42.29-20L42.29-20Q41.31-20 40.55-19.56L40.55-19.56L40.55-19.56Q39.79-19.12 39.20-18.41L39.20-18.41L39.20-18.41Q38.61-17.70 38.19-16.78L38.19-16.78L38.19-16.78Q37.77-15.86 37.51-14.89L37.51-14.89L37.51-14.89Q37.25-13.93 37.13-12.99L37.13-12.99L37.13-12.99Q37.01-12.05 37.01-11.31L37.01-11.31L37.01 0L30.39 0L30.39-30.86L36.99-30.86L36.99-19.24L36.99-19.24Q38.26-21.09 40.11-22.10L40.11-22.10L40.11-22.10Q41.95-23.11 44.20-23.11L44.20-23.11L44.20-23.11Q46.54-23.11 48.28-22.34L48.28-22.34L48.28-22.34Q50.02-21.58 51.17-20.22L51.17-20.22L51.17-20.22Q52.32-18.87 52.89-17.00L52.89-17.00L52.89-17.00Q53.46-15.14 53.46-12.93" fill="#000000" stroke="none" stroke-width="none" transform="translate(-129.6300048828125,11.647003479003907)" style="fill: rgb(0, 0, 0);"></path></g><g class="path" style="opacity: 1; transform-origin: -60.58px 0.317003px; animation: 1s linear -0.495s infinite normal forwards running blink-a94481a5-e537-49d6-a46b-1fcb04f7605c;"><path d="M81.64-11.33L81.64-11.33L81.64-11.33Q81.64-9.57 81.17-8.03L81.17-8.03L81.17-8.03Q80.70-6.48 79.87-5.18L79.87-5.18L79.87-5.18Q79.04-3.87 77.87-2.82L77.87-2.82L77.87-2.82Q76.70-1.78 75.30-1.05L75.30-1.05L75.30-1.05Q73.91-0.33 72.31 0.06L72.31 0.06L72.31 0.06Q70.72 0.45 69.04 0.45L69.04 0.45L69.04 0.45Q67.36 0.45 65.78 0.06L65.78 0.06L65.78 0.06Q64.20-0.33 62.80-1.05L62.80-1.05L62.80-1.05Q61.41-1.78 60.23-2.82L60.23-2.82L60.23-2.82Q59.06-3.87 58.23-5.18L58.23-5.18L58.23-5.18Q57.40-6.48 56.93-8.04L56.93-8.04L56.93-8.04Q56.46-9.59 56.46-11.33L56.46-11.33L56.46-11.33Q56.46-13.07 56.93-14.62L56.93-14.62L56.93-14.62Q57.40-16.17 58.23-17.48L58.23-17.48L58.23-17.48Q59.06-18.79 60.23-19.83L60.23-19.83L60.23-19.83Q61.41-20.88 62.80-21.60L62.80-21.60L62.80-21.60Q64.20-22.32 65.78-22.71L65.78-22.71L65.78-22.71Q67.36-23.11 69.04-23.11L69.04-23.11L69.04-23.11Q70.72-23.11 72.31-22.71L72.31-22.71L72.31-22.71Q73.91-22.32 75.30-21.60L75.30-21.60L75.30-21.60Q76.70-20.88 77.87-19.83L77.87-19.83L77.87-19.83Q79.04-18.79 79.87-17.48L79.87-17.48L79.87-17.48Q80.70-16.17 81.17-14.62L81.17-14.62L81.17-14.62Q81.64-13.07 81.64-11.33zM74.92-11.33L74.92-11.33L74.92-11.33Q74.92-12.27 74.81-13.31L74.81-13.31L74.81-13.31Q74.71-14.36 74.45-15.36L74.45-15.36L74.45-15.36Q74.20-16.37 73.76-17.29L73.76-17.29L73.76-17.29Q73.32-18.22 72.68-18.92L72.68-18.92L72.68-18.92Q72.03-19.61 71.13-20.03L71.13-20.03L71.13-20.03Q70.23-20.45 69.04-20.45L69.04-20.45L69.04-20.45Q67.91-20.45 67.03-20.02L67.03-20.02L67.03-20.02Q66.15-19.59 65.50-18.88L65.50-18.88L65.50-18.88Q64.84-18.16 64.40-17.23L64.40-17.23L64.40-17.23Q63.96-16.29 63.69-15.28L63.69-15.28L63.69-15.28Q63.42-14.28 63.30-13.25L63.30-13.25L63.30-13.25Q63.18-12.23 63.18-11.33L63.18-11.33L63.18-11.33Q63.18-10.43 63.30-9.40L63.30-9.40L63.30-9.40Q63.42-8.38 63.69-7.36L63.69-7.36L63.69-7.36Q63.96-6.35 64.40-5.42L64.40-5.42L64.40-5.42Q64.84-4.49 65.50-3.78L65.50-3.78L65.50-3.78Q66.15-3.07 67.03-2.64L67.03-2.64L67.03-2.64Q67.91-2.21 69.04-2.21L69.04-2.21L69.04-2.21Q70.21-2.21 71.11-2.63L71.11-2.63L71.11-2.63Q72.01-3.05 72.67-3.75L72.67-3.75L72.67-3.75Q73.32-4.45 73.75-5.37L73.75-5.37L73.75-5.37Q74.18-6.29 74.44-7.30L74.44-7.30L74.44-7.30Q74.71-8.32 74.81-9.36L74.81-9.36L74.81-9.36Q74.92-10.39 74.92-11.33" fill="#000000" stroke="none" stroke-width="none" transform="translate(-129.6300048828125,11.647003479003907)" style="fill: rgb(0, 0, 0);"></path></g><g class="path" style="opacity: 1; transform-origin: -30.135px 0.367003px; animation: 1s linear -0.44s infinite normal forwards running blink-a94481a5-e537-49d6-a46b-1fcb04f7605c;"><path d="M99.36-13.71L95.63 0L89.69 0L83.52-22.56L90.12-22.56L93.98-6.74L97.21-22.56L103.14-22.56L107.09-6.31L110.90-22.56L115.47-22.56L108.63 0L102.70 0L99.36-13.71" fill="#000000" stroke="none" stroke-width="none" transform="translate(-129.6300048828125,11.647003479003907)" style="fill: rgb(0, 0, 0);"></path></g><g class="path" style="opacity: 1; transform-origin: 10.32px -2.418px; animation: 1s linear -0.385s infinite normal forwards running blink-a94481a5-e537-49d6-a46b-1fcb04f7605c;"><path d="M143.83-24.53L143.83 0L136.07 0L136.07-24.53L128.42-24.53L128.42-28.13L151.48-28.13L151.48-24.53L143.83-24.53" fill="#000000" stroke="none" stroke-width="none" transform="translate(-129.6300048828125,11.647003479003907)" style="fill: rgb(0, 0, 0);"></path></g><g class="path" style="opacity: 1; transform-origin: 28.35px -16.348px; animation: 1s linear -0.33s infinite normal forwards running blink-a94481a5-e537-49d6-a46b-1fcb04f7605c;"><path d="M161.58-28.01L161.58-28.01L161.58-28.01Q161.58-27.27 161.30-26.60L161.30-26.60L161.30-26.60Q161.02-25.94 160.53-25.45L160.53-25.45L160.53-25.45Q160.04-24.96 159.38-24.68L159.38-24.68L159.38-24.68Q158.71-24.39 157.97-24.39L157.97-24.39L157.97-24.39Q157.23-24.39 156.57-24.68L156.57-24.68L156.57-24.68Q155.92-24.96 155.43-25.45L155.43-25.45L155.43-25.45Q154.94-25.94 154.66-26.60L154.66-26.60L154.66-26.60Q154.38-27.27 154.38-28.01L154.38-28.01L154.38-28.01Q154.38-28.75 154.66-29.40L154.66-29.40L154.66-29.40Q154.94-30.06 155.43-30.55L155.43-30.55L155.43-30.55Q155.92-31.04 156.57-31.32L156.57-31.32L156.57-31.32Q157.23-31.60 157.97-31.60L157.97-31.60L157.97-31.60Q158.71-31.60 159.38-31.32L159.38-31.32L159.38-31.32Q160.04-31.04 160.53-30.55L160.53-30.55L160.53-30.55Q161.02-30.06 161.30-29.40L161.30-29.40L161.30-29.40Q161.58-28.75 161.58-28.01" fill="#000000" stroke="none" stroke-width="none" transform="translate(-129.6300048828125,11.647003479003907)" style="fill: rgb(0, 0, 0);"></path></g><g class="path" style="opacity: 1; transform-origin: 28.35px 0.377003px; animation: 1s linear -0.275s infinite normal forwards running blink-a94481a5-e537-49d6-a46b-1fcb04f7605c;"><path d="M161.29-22.54L161.29 0L154.67 0L154.67-22.54L161.29-22.54" fill="#000000" stroke="none" stroke-width="none" transform="translate(-129.6300048828125,11.647003479003907)" style="fill: rgb(0, 0, 0);"></path></g><g class="path" style="opacity: 1; transform-origin: 54.64px 2.492px; animation: 1s linear -0.22s infinite normal forwards running blink-a94481a5-e537-49d6-a46b-1fcb04f7605c;"><path d="M201.72-13.16L201.72-13.16L201.72-13.16Q201.72-10.84 201.17-8.32L201.17-8.32L201.17-8.32Q200.63-5.80 199.64-3.41L199.64-3.41L199.64-3.41Q198.65-1.02 197.27 1.11L197.27 1.11L197.27 1.11Q195.88 3.24 194.18 4.80L194.18 4.80L191.70 3.46L191.70 3.46Q192.27 2.44 192.73 1.17L192.73 1.17L192.73 1.17Q193.20-0.10 193.59-1.50L193.59-1.50L193.59-1.50Q193.98-2.91 194.28-4.39L194.28-4.39L194.28-4.39Q194.57-5.88 194.78-7.35L194.78-7.35L194.78-7.35Q194.98-8.83 195.08-10.21L195.08-10.21L195.08-10.21Q195.18-11.60 195.18-12.81L195.18-12.81L195.18-12.81Q195.18-13.50 195.14-14.30L195.14-14.30L195.14-14.30Q195.10-15.10 194.97-15.90L194.97-15.90L194.97-15.90Q194.84-16.70 194.59-17.43L194.59-17.43L194.59-17.43Q194.34-18.16 193.90-18.74L193.90-18.74L193.90-18.74Q193.46-19.32 192.80-19.66L192.80-19.66L192.80-19.66Q192.15-20 191.23-20L191.23-20L191.23-20Q190.33-20 189.70-19.52L189.70-19.52L189.70-19.52Q189.06-19.04 188.61-18.28L188.61-18.28L188.61-18.28Q188.16-17.52 187.90-16.56L187.90-16.56L187.90-16.56Q187.64-15.61 187.50-14.64L187.50-14.64L187.50-14.64Q187.36-13.67 187.31-12.79L187.31-12.79L187.31-12.79Q187.27-11.91 187.27-11.31L187.27-11.31L187.27 0L180.68 0L180.68-10.51L180.68-10.51Q180.68-11.19 180.70-12.16L180.70-12.16L180.70-12.16Q180.72-13.13 180.65-14.18L180.65-14.18L180.65-14.18Q180.59-15.23 180.40-16.28L180.40-16.28L180.40-16.28Q180.21-17.32 179.81-18.14L179.81-18.14L179.81-18.14Q179.41-18.96 178.73-19.48L178.73-19.48L178.73-19.48Q178.05-20 177.01-20L177.01-20L177.01-20Q176.13-20 175.54-19.51L175.54-19.51L175.54-19.51Q174.94-19.02 174.54-18.25L174.54-18.25L174.54-18.25Q174.14-17.48 173.92-16.51L173.92-16.51L173.92-16.51Q173.69-15.55 173.58-14.58L173.58-14.58L173.58-14.58Q173.48-13.61 173.46-12.74L173.46-12.74L173.46-12.74Q173.44-11.88 173.44-11.31L173.44-11.31L173.44 0L166.82 0L166.82-22.56L169.36-22.56L171.78-17.30L171.78-17.30Q172.60-20.04 174.37-21.57L174.37-21.57L174.37-21.57Q176.13-23.11 179.06-23.11L179.06-23.11L179.06-23.11Q181.70-23.11 183.44-22.01L183.44-22.01L183.44-22.01Q185.18-20.92 186.17-18.46L186.17-18.46L186.17-18.46Q186.74-19.53 187.43-20.39L187.43-20.39L187.43-20.39Q188.13-21.25 188.97-21.86L188.97-21.86L188.97-21.86Q189.82-22.46 190.86-22.78L190.86-22.78L190.86-22.78Q191.89-23.11 193.14-23.11L193.14-23.11L193.14-23.11Q195.45-23.11 197.08-22.35L197.08-22.35L197.08-22.35Q198.71-21.60 199.75-20.27L199.75-20.27L199.75-20.27Q200.78-18.95 201.25-17.12L201.25-17.12L201.25-17.12Q201.72-15.29 201.72-13.16" fill="#000000" stroke="none" stroke-width="none" transform="translate(-129.6300048828125,11.647003479003907)" style="fill: rgb(0, 0, 0);"></path></g><g class="path" style="opacity: 1; transform-origin: 86.675px 0.317003px; animation: 1s linear -0.165s infinite normal forwards running blink-a94481a5-e537-49d6-a46b-1fcb04f7605c;"><path d="M211.54-10.70L211.54-10.70L211.54-10.70Q212.75-10.43 213.96-10.27L213.96-10.27L213.96-10.27Q215.18-10.12 216.41-10.12L216.41-10.12L216.41-10.12Q217.70-10.12 218.80-10.36L218.80-10.36L218.80-10.36Q219.90-10.61 220.71-11.18L220.71-11.18L220.71-11.18Q221.52-11.76 221.99-12.71L221.99-12.71L221.99-12.71Q222.46-13.67 222.46-15.10L222.46-15.10L222.46-15.10Q222.46-16.25 222.15-17.21L222.15-17.21L222.15-17.21Q221.84-18.16 221.22-18.85L221.22-18.85L221.22-18.85Q220.61-19.53 219.71-19.91L219.71-19.91L219.71-19.91Q218.81-20.29 217.62-20.29L217.62-20.29L217.62-20.29Q216.50-20.29 215.62-19.88L215.62-19.88L215.62-19.88Q214.73-19.47 214.05-18.78L214.05-18.78L214.05-18.78Q213.38-18.09 212.90-17.17L212.90-17.17L212.90-17.17Q212.42-16.25 212.11-15.25L212.11-15.25L212.11-15.25Q211.80-14.26 211.66-13.24L211.66-13.24L211.66-13.24Q211.52-12.23 211.52-11.33L211.52-11.33L211.52-11.33Q211.52-11.17 211.52-11.02L211.52-11.02L211.52-11.02Q211.52-10.86 211.54-10.70zM227.81-15.16L227.81-15.16L227.81-15.16Q227.81-13.77 227.36-12.69L227.36-12.69L227.36-12.69Q226.91-11.60 226.14-10.78L226.14-10.78L226.14-10.78Q225.37-9.96 224.36-9.39L224.36-9.39L224.36-9.39Q223.34-8.83 222.19-8.47L222.19-8.47L222.19-8.47Q221.04-8.11 219.81-7.95L219.81-7.95L219.81-7.95Q218.59-7.79 217.44-7.79L217.44-7.79L217.44-7.79Q215.98-7.79 214.55-8.00L214.55-8.00L214.55-8.00Q213.13-8.20 211.74-8.65L211.74-8.65L211.74-8.65Q211.95-7.36 212.42-6.20L212.42-6.20L212.42-6.20Q212.89-5.04 213.67-4.17L213.67-4.17L213.67-4.17Q214.45-3.30 215.60-2.79L215.60-2.79L215.60-2.79Q216.74-2.29 218.30-2.29L218.30-2.29L218.30-2.29Q219.34-2.29 220.27-2.60L220.27-2.60L220.27-2.60Q221.21-2.91 221.99-3.48L221.99-3.48L221.99-3.48Q222.77-4.04 223.37-4.82L223.37-4.82L223.37-4.82Q223.96-5.61 224.34-6.56L224.34-6.56L227.19-5.51L227.19-5.51Q226.54-3.96 225.42-2.84L225.42-2.84L225.42-2.84Q224.30-1.72 222.88-0.99L222.88-0.99L222.88-0.99Q221.46-0.25 219.87 0.10L219.87 0.10L219.87 0.10Q218.28 0.45 216.72 0.45L216.72 0.45L216.72 0.45Q214.14 0.45 211.95-0.42L211.95-0.42L211.95-0.42Q209.77-1.29 208.18-2.85L208.18-2.85L208.18-2.85Q206.60-4.41 205.70-6.58L205.70-6.58L205.70-6.58Q204.80-8.75 204.80-11.33L204.80-11.33L204.80-11.33Q204.80-13.91 205.70-16.07L205.70-16.07L205.70-16.07Q206.60-18.24 208.18-19.80L208.18-19.80L208.18-19.80Q209.77-21.37 211.95-22.24L211.95-22.24L211.95-22.24Q214.14-23.11 216.72-23.11L216.72-23.11L216.72-23.11Q217.97-23.11 219.28-22.93L219.28-22.93L219.28-22.93Q220.59-22.75 221.82-22.37L221.82-22.37L221.82-22.37Q223.05-21.99 224.14-21.39L224.14-21.39L224.14-21.39Q225.23-20.78 226.04-19.89L226.04-19.89L226.04-19.89Q226.86-19.00 227.33-17.83L227.33-17.83L227.33-17.83Q227.81-16.66 227.81-15.16" fill="#000000" stroke="none" stroke-width="none" transform="translate(-129.6300048828125,11.647003479003907)" style="fill: rgb(0, 0, 0);"></path></g><g class="path" style="opacity: 1; transform-origin: 105.155px 8.727px; animation: 1s linear -0.11s infinite normal forwards running blink-a94481a5-e537-49d6-a46b-1fcb04f7605c;"><path d="M238.34-2.93L238.34-2.93L238.34-2.93Q238.34-2.19 238.07-1.53L238.07-1.53L238.07-1.53Q237.79-0.88 237.30-0.40L237.30-0.40L237.30-0.40Q236.82 0.08 236.17 0.36L236.17 0.36L236.17 0.36Q235.53 0.64 234.79 0.64L234.79 0.64L234.79 0.64Q234.04 0.64 233.40 0.36L233.40 0.36L233.40 0.36Q232.75 0.08 232.27-0.40L232.27-0.40L232.27-0.40Q231.78-0.88 231.50-1.53L231.50-1.53L231.50-1.53Q231.23-2.19 231.23-2.93L231.23-2.93L231.23-2.93Q231.23-3.65 231.50-4.31L231.50-4.31L231.50-4.31Q231.78-4.96 232.27-5.44L232.27-5.44L232.27-5.44Q232.75-5.92 233.40-6.20L233.40-6.20L233.40-6.20Q234.04-6.48 234.79-6.48L234.79-6.48L234.79-6.48Q235.53-6.48 236.17-6.20L236.17-6.20L236.17-6.20Q236.82-5.92 237.30-5.44L237.30-5.44L237.30-5.44Q237.79-4.96 238.07-4.31L238.07-4.31L238.07-4.31Q238.34-3.65 238.34-2.93" fill="#000000" stroke="none" stroke-width="none" transform="translate(-129.6300048828125,11.647003479003907)" style="fill: rgb(0, 0, 0);"></path></g><g class="path" style="opacity: 1; transform-origin: 116.365px 8.727px; animation: 1s linear -0.055s infinite normal forwards running blink-a94481a5-e537-49d6-a46b-1fcb04f7605c;"><path d="M249.55-2.93L249.55-2.93L249.55-2.93Q249.55-2.19 249.28-1.53L249.28-1.53L249.28-1.53Q249.00-0.88 248.52-0.40L248.52-0.40L248.52-0.40Q248.03 0.08 247.38 0.36L247.38 0.36L247.38 0.36Q246.74 0.64 246.00 0.64L246.00 0.64L246.00 0.64Q245.25 0.64 244.61 0.36L244.61 0.36L244.61 0.36Q243.96 0.08 243.48-0.40L243.48-0.40L243.48-0.40Q242.99-0.88 242.71-1.53L242.71-1.53L242.71-1.53Q242.44-2.19 242.44-2.93L242.44-2.93L242.44-2.93Q242.44-3.65 242.71-4.31L242.71-4.31L242.71-4.31Q242.99-4.96 243.48-5.44L243.48-5.44L243.48-5.44Q243.96-5.92 244.61-6.20L244.61-6.20L244.61-6.20Q245.25-6.48 246.00-6.48L246.00-6.48L246.00-6.48Q246.74-6.48 247.38-6.20L247.38-6.20L247.38-6.20Q248.03-5.92 248.52-5.44L248.52-5.44L248.52-5.44Q249.00-4.96 249.28-4.31L249.28-4.31L249.28-4.31Q249.55-3.65 249.55-2.93" fill="#000000" stroke="none" stroke-width="none" transform="translate(-129.6300048828125,11.647003479003907)" style="fill: rgb(0, 0, 0);"></path></g><g class="path" style="opacity: 1; transform-origin: 127.575px 8.727px; animation: 1s linear 0s infinite normal forwards running blink-a94481a5-e537-49d6-a46b-1fcb04f7605c;"><path d="M260.76-2.93L260.76-2.93L260.76-2.93Q260.76-2.19 260.49-1.53L260.49-1.53L260.49-1.53Q260.21-0.88 259.73-0.40L259.73-0.40L259.73-0.40Q259.24 0.08 258.59 0.36L258.59 0.36L258.59 0.36Q257.95 0.64 257.21 0.64L257.21 0.64L257.21 0.64Q256.46 0.64 255.82 0.36L255.82 0.36L255.82 0.36Q255.18 0.08 254.69-0.40L254.69-0.40L254.69-0.40Q254.20-0.88 253.93-1.53L253.93-1.53L253.93-1.53Q253.65-2.19 253.65-2.93L253.65-2.93L253.65-2.93Q253.65-3.65 253.93-4.31L253.93-4.31L253.93-4.31Q254.20-4.96 254.69-5.44L254.69-5.44L254.69-5.44Q255.18-5.92 255.82-6.20L255.82-6.20L255.82-6.20Q256.46-6.48 257.21-6.48L257.21-6.48L257.21-6.48Q257.95-6.48 258.59-6.20L258.59-6.20L258.59-6.20Q259.24-5.92 259.73-5.44L259.73-5.44L259.73-5.44Q260.21-4.96 260.49-4.31L260.49-4.31L260.49-4.31Q260.76-3.65 260.76-2.93" fill="#000000" stroke="none" stroke-width="none" transform="translate(-129.6300048828125,11.647003479003907)" style="fill: rgb(0, 0, 0);"></path></g></g>
</g>
</g>
<style id="blink-a94481a5-e537-49d6-a46b-1fcb04f7605c" data-anikit="">@keyframes blink-a94481a5-e537-49d6-a46b-1fcb04f7605c {
  0% { opacity: 1; }
  49.75% { opacity: 1; }
  50.25% { opacity: 0; }
  99.5% { opacity: 0; }
  100% { opacity: 1; }
}</style></svg>